<svg class="main-svg" xmlns="http://www.w3.org/2000/svg" xmlns:xlink="http://www.w3.org/1999/xlink" width="700" height="500" style="" viewBox="0 0 700 500"><rect x="0" y="0" width="700" height="500" style="fill: rgb(0, 0, 0); fill-opacity: 0;"/><defs id="defs-804728"><g class="clips"><clipPath id="clip804728xyplot" class="plotclip"><rect width="540" height="320"/></clipPath><clipPath class="axesclip" id="clip804728x"><rect x="80" y="0" width="540" height="500"/></clipPath><clipPath class="axesclip" id="clip804728y"><rect x="0" y="100" width="700" height="320"/></clipPath><clipPath class="axesclip" id="clip804728xy"><rect x="80" y="100" width="540" height="320"/></clipPath></g><g class="gradients"/><g class="patterns"/></defs><g class="bglayer"><rect class="bg" x="80" y="100" width="540" height="320" style="fill: rgb(0, 0, 0); fill-opacity: 0; stroke-width: 0;"/></g><g class="layer-below"><g class="imagelayer"/><g class="shapelayer"/></g><g class="cartesianlayer"><g class="subplot xy"><g class="layer-subplot"><g class="shapelayer"/><g class="imagelayer"/></g><g class="gridlayer"><g class="x"><path class="xgrid crisp" transform="translate(89.7,0)" d="M0,100v320" style="stroke: rgb(255, 255, 255); stroke-opacity: 1; stroke-width: 1px;"/><path class="xgrid crisp" transform="translate(214.77,0)" d="M0,100v320" style="stroke: rgb(255, 255, 255); stroke-opacity: 1; stroke-width: 1px;"/><path class="xgrid crisp" transform="translate(464.92,0)" d="M0,100v320" style="stroke: rgb(255, 255, 255); stroke-opacity: 1; stroke-width: 1px;"/><path class="xgrid crisp" transform="translate(590,0)" d="M0,100v320" style="stroke: rgb(255, 255, 255); stroke-opacity: 1; stroke-width: 1px;"/></g><g class="y"><path class="ygrid crisp" transform="translate(0,411.66)" d="M80,0h540" style="stroke: rgb(255, 255, 255); stroke-opacity: 1; stroke-width: 1px;"/><path class="ygrid crisp" transform="translate(0,329.94)" d="M80,0h540" style="stroke: rgb(255, 255, 255); stroke-opacity: 1; stroke-width: 1px;"/><path class="ygrid crisp" transform="translate(0,166.49)" d="M80,0h540" style="stroke: rgb(255, 255, 255); stroke-opacity: 1; stroke-width: 1px;"/></g></g><g class="zerolinelayer"><path class="xzl zl crisp" transform="translate(339.85,0)" d="M0,100v320" style="stroke: rgb(255, 255, 255); stroke-opacity: 1; stroke-width: 2px;"/><path class="yzl zl crisp" transform="translate(0,248.22)" d="M80,0h540" style="stroke: rgb(255, 255, 255); stroke-opacity: 1; stroke-width: 2px;"/></g><path class="xlines-below"/><path class="ylines-below"/><g class="overlines-below"/><g class="xaxislayer-below"/><g class="yaxislayer-below"/><g class="overaxes-below"/><g class="plot" transform="translate(80,100)" clip-path="url(#clip804728xyplot)"><g class="scatterlayer mlayer"><g class="trace scatter traced36de7" style="stroke-miterlimit: 2; opacity: 1;"><g class="fills"/><g class="errorbars"/><g class="lines"><path class="js-line" d="M432.74,51.07L408.71,53.1" style="vector-effect: non-scaling-stroke; fill: none; stroke: rgb(100, 149, 237); stroke-opacity: 1; stroke-width: 0.0078834px; opacity: 1;"/></g><g class="points"/><g class="text"/></g><g class="trace scatter traced700c5" style="stroke-miterlimit: 2; opacity: 1;"><g class="fills"/><g class="errorbars"/><g class="lines"><path class="js-line" d="M125.82,22.25L125.28,42.43" style="vector-effect: non-scaling-stroke; fill: none; stroke: rgb(100, 149, 237); stroke-opacity: 1; stroke-width: 0.0078834px; opacity: 1;"/></g><g class="points"/><g class="text"/></g><g class="trace scatter trace1b7776" style="stroke-miterlimit: 2; opacity: 1;"><g class="fills"/><g class="errorbars"/><g class="lines"><path class="js-line" d="M125.28,42.43L95,39.77" style="vector-effect: non-scaling-stroke; fill: none; stroke: rgb(100, 149, 237); stroke-opacity: 1; stroke-width: 0.0078834px; opacity: 1;"/></g><g class="points"/><g class="text"/></g><g class="trace scatter trace8038a9" style="stroke-miterlimit: 2; opacity: 1;"><g class="fills"/><g class="errorbars"/><g class="lines"><path class="js-line" d="M303.18,284.25L304.33,300.09" style="vector-effect: non-scaling-stroke; fill: none; stroke: rgb(100, 149, 237); stroke-opacity: 1; stroke-width: 0.0078834px; opacity: 1;"/></g><g class="points"/><g class="text"/></g><g class="trace scatter traceb631e4" style="stroke-miterlimit: 2; opacity: 1;"><g class="fills"/><g class="errorbars"/><g class="lines"><path class="js-line" d="M92.15,260.9L111.71,247.97" style="vector-effect: non-scaling-stroke; fill: none; stroke: rgb(100, 149, 237); stroke-opacity: 1; stroke-width: 0.0078834px; opacity: 1;"/></g><g class="points"/><g class="text"/></g><g class="trace scatter trace497109" style="stroke-miterlimit: 2; opacity: 1;"><g class="fills"/><g class="errorbars"/><g class="lines"><path class="js-line" d="M349.75,136L326.8,121.19" style="vector-effect: non-scaling-stroke; fill: none; stroke: rgb(100, 149, 237); stroke-opacity: 1; stroke-width: 0.0078834px; opacity: 1;"/></g><g class="points"/><g class="text"/></g><g class="trace scatter tracea266f9" style="stroke-miterlimit: 2; opacity: 1;"><g class="fills"/><g class="errorbars"/><g class="lines"><path class="js-line" d="M349.75,136L373.15,148.04" style="vector-effect: non-scaling-stroke; fill: none; stroke: rgb(100, 149, 237); stroke-opacity: 1; stroke-width: 0.0078834px; opacity: 1;"/></g><g class="points"/><g class="text"/></g><g class="trace scatter traceab5ed3" style="stroke-miterlimit: 2; opacity: 1;"><g class="fills"/><g class="errorbars"/><g class="lines"><path class="js-line" d="M326.8,121.19L309.11,106.46" style="vector-effect: non-scaling-stroke; fill: none; stroke: rgb(100, 149, 237); stroke-opacity: 1; stroke-width: 0.0078834px; opacity: 1;"/></g><g class="points"/><g class="text"/></g><g class="trace scatter trace1a24c9" style="stroke-miterlimit: 2; opacity: 1;"><g class="fills"/><g class="errorbars"/><g class="lines"/><g class="points"><path class="point" transform="translate(432.74,51.07)" d="M6.25,0A6.25,6.25 0 1,1 0,-6.25A6.25,6.25 0 0,1 6.25,0Z" style="opacity: 0.7; stroke-width: 1px; fill: rgb(100, 149, 237); fill-opacity: 1; stroke: rgb(255, 255, 255); stroke-opacity: 1;"/><path class="point" transform="translate(408.71,53.1)" d="M5,0A5,5 0 1,1 0,-5A5,5 0 0,1 5,0Z" style="opacity: 0.7; stroke-width: 1px; fill: rgb(100, 149, 237); fill-opacity: 1; stroke: rgb(255, 255, 255); stroke-opacity: 1;"/><path class="point" transform="translate(125.82,22.25)" d="M5,0A5,5 0 1,1 0,-5A5,5 0 0,1 5,0Z" style="opacity: 0.7; stroke-width: 1px; fill: rgb(100, 149, 237); fill-opacity: 1; stroke: rgb(255, 255, 255); stroke-opacity: 1;"/><path class="point" transform="translate(125.28,42.43)" d="M10,0A10,10 0 1,1 0,-10A10,10 0 0,1 10,0Z" style="opacity: 0.7; stroke-width: 1px; fill: rgb(100, 149, 237); fill-opacity: 1; stroke: rgb(255, 255, 255); stroke-opacity: 1;"/><path class="point" transform="translate(95,39.77)" d="M3.13,0A3.13,3.13 0 1,1 0,-3.13A3.13,3.13 0 0,1 3.13,0Z" style="opacity: 0.7; stroke-width: 1px; fill: rgb(100, 149, 237); fill-opacity: 1; stroke: rgb(255, 255, 255); stroke-opacity: 1;"/><path class="point" transform="translate(30,150.59)" d="M0,0A0,0 0 1,1 0,-0A0,0 0 0,1 0,0Z" style="opacity: 0.7; stroke-width: 1px; fill: rgb(100, 149, 237); fill-opacity: 1; stroke: rgb(255, 255, 255); stroke-opacity: 1;"/><path class="point" transform="translate(303.18,284.25)" d="M3.13,0A3.13,3.13 0 1,1 0,-3.13A3.13,3.13 0 0,1 3.13,0Z" style="opacity: 0.7; stroke-width: 1px; fill: rgb(100, 149, 237); fill-opacity: 1; stroke: rgb(255, 255, 255); stroke-opacity: 1;"/><path class="point" transform="translate(304.33,300.09)" d="M3.13,0A3.13,3.13 0 1,1 0,-3.13A3.13,3.13 0 0,1 3.13,0Z" style="opacity: 0.7; stroke-width: 1px; fill: rgb(100, 149, 237); fill-opacity: 1; stroke: rgb(255, 255, 255); stroke-opacity: 1;"/><path class="point" transform="translate(92.15,260.9)" d="M3.13,0A3.13,3.13 0 1,1 0,-3.13A3.13,3.13 0 0,1 3.13,0Z" style="opacity: 0.7; stroke-width: 1px; fill: rgb(100, 149, 237); fill-opacity: 1; stroke: rgb(255, 255, 255); stroke-opacity: 1;"/><path class="point" transform="translate(111.71,247.97)" d="M3.13,0A3.13,3.13 0 1,1 0,-3.13A3.13,3.13 0 0,1 3.13,0Z" style="opacity: 0.7; stroke-width: 1px; fill: rgb(100, 149, 237); fill-opacity: 1; stroke: rgb(255, 255, 255); stroke-opacity: 1;"/><path class="point" transform="translate(349.75,136)" d="M6.25,0A6.25,6.25 0 1,1 0,-6.25A6.25,6.25 0 0,1 6.25,0Z" style="opacity: 0.7; stroke-width: 1px; fill: rgb(100, 149, 237); fill-opacity: 1; stroke: rgb(255, 255, 255); stroke-opacity: 1;"/><path class="point" transform="translate(326.8,121.19)" d="M6.25,0A6.25,6.25 0 1,1 0,-6.25A6.25,6.25 0 0,1 6.25,0Z" style="opacity: 0.7; stroke-width: 1px; fill: rgb(100, 149, 237); fill-opacity: 1; stroke: rgb(255, 255, 255); stroke-opacity: 1;"/><path class="point" transform="translate(309.11,106.46)" d="M3.13,0A3.13,3.13 0 1,1 0,-3.13A3.13,3.13 0 0,1 3.13,0Z" style="opacity: 0.7; stroke-width: 1px; fill: rgb(100, 149, 237); fill-opacity: 1; stroke: rgb(255, 255, 255); stroke-opacity: 1;"/><path class="point" transform="translate(510,259.12)" d="M0,0A0,0 0 1,1 0,-0A0,0 0 0,1 0,0Z" style="opacity: 0.7; stroke-width: 1px; fill: rgb(100, 149, 237); fill-opacity: 1; stroke: rgb(255, 255, 255); stroke-opacity: 1;"/><path class="point" transform="translate(373.15,148.04)" d="M3.13,0A3.13,3.13 0 1,1 0,-3.13A3.13,3.13 0 0,1 3.13,0Z" style="opacity: 0.7; stroke-width: 1px; fill: rgb(100, 149, 237); fill-opacity: 1; stroke: rgb(255, 255, 255); stroke-opacity: 1;"/></g><g class="text"><g class="textpoint" transform="translate(0,-11.3125)"><text x="432.74" y="51.07" text-anchor="middle" style="font-family: 'Open Sans', verdana, arial, sans-serif; font-size: 10px; fill: rgb(42, 63, 95); fill-opacity: 1; white-space: pre;"><tspan style="font-weight:bold">mathemat</tspan></text></g><g class="textpoint" transform="translate(0,-9.75)"><text x="408.71" y="53.1" text-anchor="middle" style="font-family: 'Open Sans', verdana, arial, sans-serif; font-size: 10px; fill: rgb(42, 63, 95); fill-opacity: 1; white-space: pre;"><tspan style="font-weight:bold">model</tspan></text></g><g class="textpoint" transform="translate(0,-9.75)"><text x="125.82" y="22.25" text-anchor="middle" style="font-family: 'Open Sans', verdana, arial, sans-serif; font-size: 10px; fill: rgb(42, 63, 95); fill-opacity: 1; white-space: pre;"><tspan style="font-weight:bold">ion</tspan></text></g><g class="textpoint" transform="translate(0,-16)"><text x="125.28" y="42.43" text-anchor="middle" style="font-family: 'Open Sans', verdana, arial, sans-serif; font-size: 10px; fill: rgb(42, 63, 95); fill-opacity: 1; white-space: pre;"><tspan style="font-weight:bold">exchang</tspan></text></g><g class="textpoint" transform="translate(0,-7.40625)"><text x="95" y="39.77" text-anchor="middle" style="font-family: 'Open Sans', verdana, arial, sans-serif; font-size: 10px; fill: rgb(42, 63, 95); fill-opacity: 1; white-space: pre;"><tspan style="font-weight:bold">compress</tspan></text></g><g class="textpoint" transform="translate(0,-2.5)"><text x="30" y="150.59" text-anchor="middle" style="font-family: 'Open Sans', verdana, arial, sans-serif; font-size: 10px; fill: rgb(42, 63, 95); fill-opacity: 1; white-space: pre;"><tspan style="font-weight:bold">process</tspan></text></g><g class="textpoint" transform="translate(0,-7.40625)"><text x="303.18" y="284.25" text-anchor="middle" style="font-family: 'Open Sans', verdana, arial, sans-serif; font-size: 10px; fill: rgb(42, 63, 95); fill-opacity: 1; white-space: pre;"><tspan style="font-weight:bold">invers</tspan></text></g><g class="textpoint" transform="translate(0,-7.40625)"><text x="304.33" y="300.09" text-anchor="middle" style="font-family: 'Open Sans', verdana, arial, sans-serif; font-size: 10px; fill: rgb(42, 63, 95); fill-opacity: 1; white-space: pre;"><tspan style="font-weight:bold">problem</tspan></text></g><g class="textpoint" transform="translate(0,-7.40625)"><text x="92.15" y="260.9" text-anchor="middle" style="font-family: 'Open Sans', verdana, arial, sans-serif; font-size: 10px; fill: rgb(42, 63, 95); fill-opacity: 1; white-space: pre;"><tspan style="font-weight:bold">uniqu</tspan></text></g><g class="textpoint" transform="translate(0,-7.40625)"><text x="111.71" y="247.97" text-anchor="middle" style="font-family: 'Open Sans', verdana, arial, sans-serif; font-size: 10px; fill: rgb(42, 63, 95); fill-opacity: 1; white-space: pre;"><tspan style="font-weight:bold">solvabl</tspan></text></g><g class="textpoint" transform="translate(0,-11.3125)"><text x="349.75" y="136" text-anchor="middle" style="font-family: 'Open Sans', verdana, arial, sans-serif; font-size: 10px; fill: rgb(42, 63, 95); fill-opacity: 1; white-space: pre;"><tspan style="font-weight:bold">numer</tspan></text></g><g class="textpoint" transform="translate(0,-11.3125)"><text x="326.8" y="121.19" text-anchor="middle" style="font-family: 'Open Sans', verdana, arial, sans-serif; font-size: 10px; fill: rgb(42, 63, 95); fill-opacity: 1; white-space: pre;"><tspan style="font-weight:bold">solut</tspan></text></g><g class="textpoint" transform="translate(0,-7.40625)"><text x="309.11" y="106.46" text-anchor="middle" style="font-family: 'Open Sans', verdana, arial, sans-serif; font-size: 10px; fill: rgb(42, 63, 95); fill-opacity: 1; white-space: pre;"><tspan style="font-weight:bold">method</tspan></text></g><g class="textpoint" transform="translate(0,-2.5)"><text x="510" y="259.12" text-anchor="middle" style="font-family: 'Open Sans', verdana, arial, sans-serif; font-size: 10px; fill: rgb(42, 63, 95); fill-opacity: 1; white-space: pre;"><tspan style="font-weight:bold">effici</tspan></text></g><g class="textpoint" transform="translate(0,-7.40625)"><text x="373.15" y="148.04" text-anchor="middle" style="font-family: 'Open Sans', verdana, arial, sans-serif; font-size: 10px; fill: rgb(42, 63, 95); fill-opacity: 1; white-space: pre;"><tspan style="font-weight:bold">experi</tspan></text></g></g></g></g></g><g class="overplot"/><path class="xlines-above crisp" d="M0,0" style="fill: none;"/><path class="ylines-above crisp" d="M0,0" style="fill: none;"/><g class="overlines-above"/><g class="xaxislayer-above"/><g class="yaxislayer-above"/><g class="overaxes-above"/></g></g><g class="polarlayer"/><g class="ternarylayer"/><g class="geolayer"/><g class="funnelarealayer"/><g class="pielayer"/><g class="iciclelayer"/><g class="treemaplayer"/><g class="sunburstlayer"/><g class="glimages"/><defs id="topdefs-804728"><g class="clips"/></defs><g class="layer-above"><g class="imagelayer"/><g class="shapelayer"/></g><g class="infolayer"><g class="g-gtitle"><text class="gtitle" x="350" y="50" text-anchor="middle" dy="0em" style="font-family: 'Open Sans', verdana, arial, sans-serif; font-size: 17px; fill: rgb(42, 63, 95); opacity: 1; font-weight: normal; white-space: pre;"><tspan style="font-weight:bold">TextRank - EN</tspan></text></g><g class="g-xtitle"/><g class="g-ytitle"/></g></svg>