<svg class="main-svg" xmlns="http://www.w3.org/2000/svg" xmlns:xlink="http://www.w3.org/1999/xlink" width="700" height="500" style="" viewBox="0 0 700 500"><rect x="0" y="0" width="700" height="500" style="fill: rgb(0, 0, 0); fill-opacity: 0;"/><defs id="defs-ec6ad9"><g class="clips"><clipPath id="clipec6ad9xyplot" class="plotclip"><rect width="540" height="320"/></clipPath><clipPath class="axesclip" id="clipec6ad9x"><rect x="80" y="0" width="540" height="500"/></clipPath><clipPath class="axesclip" id="clipec6ad9y"><rect x="0" y="100" width="700" height="320"/></clipPath><clipPath class="axesclip" id="clipec6ad9xy"><rect x="80" y="100" width="540" height="320"/></clipPath></g><g class="gradients"/><g class="patterns"/></defs><g class="bglayer"><rect class="bg" x="80" y="100" width="540" height="320" style="fill: rgb(0, 0, 0); fill-opacity: 0; stroke-width: 0;"/></g><g class="layer-below"><g class="imagelayer"/><g class="shapelayer"/></g><g class="cartesianlayer"><g class="subplot xy"><g class="layer-subplot"><g class="shapelayer"/><g class="imagelayer"/></g><g class="gridlayer"><g class="x"><path class="xgrid crisp" transform="translate(205.43,0)" d="M0,100v320" style="stroke: rgb(255, 255, 255); stroke-opacity: 1; stroke-width: 1px;"/><path class="xgrid crisp" transform="translate(461.81,0)" d="M0,100v320" style="stroke: rgb(255, 255, 255); stroke-opacity: 1; stroke-width: 1px;"/><path class="xgrid crisp" transform="translate(590,0)" d="M0,100v320" style="stroke: rgb(255, 255, 255); stroke-opacity: 1; stroke-width: 1px;"/></g><g class="y"><path class="ygrid crisp" transform="translate(0,405.72)" d="M80,0h540" style="stroke: rgb(255, 255, 255); stroke-opacity: 1; stroke-width: 1px;"/><path class="ygrid crisp" transform="translate(0,327.88)" d="M80,0h540" style="stroke: rgb(255, 255, 255); stroke-opacity: 1; stroke-width: 1px;"/><path class="ygrid crisp" transform="translate(0,172.19)" d="M80,0h540" style="stroke: rgb(255, 255, 255); stroke-opacity: 1; stroke-width: 1px;"/></g></g><g class="zerolinelayer"><path class="xzl zl crisp" transform="translate(333.62,0)" d="M0,100v320" style="stroke: rgb(255, 255, 255); stroke-opacity: 1; stroke-width: 2px;"/><path class="yzl zl crisp" transform="translate(0,250.04)" d="M80,0h540" style="stroke: rgb(255, 255, 255); stroke-opacity: 1; stroke-width: 2px;"/></g><path class="xlines-below"/><path class="ylines-below"/><g class="overlines-below"/><g class="xaxislayer-below"/><g class="yaxislayer-below"/><g class="overaxes-below"/><g class="plot" transform="translate(80,100)" clip-path="url(#clipec6ad9xyplot)"><g class="scatterlayer mlayer"><g class="trace scatter traced3fad7" style="stroke-miterlimit: 2; opacity: 1;"><g class="fills"/><g class="errorbars"/><g class="lines"><path class="js-line" d="M299.97,281.07L306.46,297.75" style="vector-effect: non-scaling-stroke; fill: none; stroke: rgb(100, 149, 237); stroke-opacity: 1; stroke-width: 2.05156px; opacity: 1;"/></g><g class="points"/><g class="text"/></g><g class="trace scatter trace0709bf" style="stroke-miterlimit: 2; opacity: 1;"><g class="fills"/><g class="errorbars"/><g class="lines"><path class="js-line" d="M389.82,47.09L361.89,45.61" style="vector-effect: non-scaling-stroke; fill: none; stroke: rgb(100, 149, 237); stroke-opacity: 1; stroke-width: 2.05156px; opacity: 1;"/></g><g class="points"/><g class="text"/></g><g class="trace scatter trace302776" style="stroke-miterlimit: 2; opacity: 1;"><g class="fills"/><g class="errorbars"/><g class="lines"><path class="js-line" d="M361.89,45.61L361.5,27.49" style="vector-effect: non-scaling-stroke; fill: none; stroke: rgb(100, 149, 237); stroke-opacity: 1; stroke-width: 2.05156px; opacity: 1;"/></g><g class="points"/><g class="text"/></g><g class="trace scatter trace8dccb2" style="stroke-miterlimit: 2; opacity: 1;"><g class="fills"/><g class="errorbars"/><g class="lines"><path class="js-line" d="M91.59,242.76L114.08,232.45" style="vector-effect: non-scaling-stroke; fill: none; stroke: rgb(100, 149, 237); stroke-opacity: 1; stroke-width: 2.05156px; opacity: 1;"/></g><g class="points"/><g class="text"/></g><g class="trace scatter trace551694" style="stroke-miterlimit: 2; opacity: 1;"><g class="fills"/><g class="errorbars"/><g class="lines"><path class="js-line" d="M30.91,79.36L47.48,69.54" style="vector-effect: non-scaling-stroke; fill: none; stroke: rgb(100, 149, 237); stroke-opacity: 1; stroke-width: 2.05156px; opacity: 1;"/></g><g class="points"/><g class="text"/></g><g class="trace scatter trace01397e" style="stroke-miterlimit: 2; opacity: 1;"><g class="fills"/><g class="errorbars"/><g class="lines"><path class="js-line" d="M293.49,173.06L262.86,169.87" style="vector-effect: non-scaling-stroke; fill: none; stroke: rgb(100, 149, 237); stroke-opacity: 1; stroke-width: 2.05156px; opacity: 1;"/></g><g class="points"/><g class="text"/></g><g class="trace scatter trace546620" style="stroke-miterlimit: 2; opacity: 1;"><g class="fills"/><g class="errorbars"/><g class="lines"><path class="js-line" d="M293.49,173.06L321.66,176.18" style="vector-effect: non-scaling-stroke; fill: none; stroke: rgb(100, 149, 237); stroke-opacity: 1; stroke-width: 2.05156px; opacity: 1;"/></g><g class="points"/><g class="text"/></g><g class="trace scatter trace42d374" style="stroke-miterlimit: 2; opacity: 1;"><g class="fills"/><g class="errorbars"/><g class="lines"><path class="js-line" d="M262.86,169.87L234.99,166.8" style="vector-effect: non-scaling-stroke; fill: none; stroke: rgb(100, 149, 237); stroke-opacity: 1; stroke-width: 2.05156px; opacity: 1;"/></g><g class="points"/><g class="text"/></g><g class="trace scatter tracedd90c6" style="stroke-miterlimit: 2; opacity: 1;"><g class="fills"/><g class="errorbars"/><g class="lines"/><g class="points"><path class="point" transform="translate(299.97,281.07)" d="M6.25,0A6.25,6.25 0 1,1 0,-6.25A6.25,6.25 0 0,1 6.25,0Z" style="opacity: 0.7; stroke-width: 1px; fill: rgb(100, 149, 237); fill-opacity: 1; stroke: rgb(255, 255, 255); stroke-opacity: 1;"/><path class="point" transform="translate(306.46,297.75)" d="M5,0A5,5 0 1,1 0,-5A5,5 0 0,1 5,0Z" style="opacity: 0.7; stroke-width: 1px; fill: rgb(100, 149, 237); fill-opacity: 1; stroke: rgb(255, 255, 255); stroke-opacity: 1;"/><path class="point" transform="translate(389.82,47.09)" d="M5,0A5,5 0 1,1 0,-5A5,5 0 0,1 5,0Z" style="opacity: 0.7; stroke-width: 1px; fill: rgb(100, 149, 237); fill-opacity: 1; stroke: rgb(255, 255, 255); stroke-opacity: 1;"/><path class="point" transform="translate(361.89,45.61)" d="M10,0A10,10 0 1,1 0,-10A10,10 0 0,1 10,0Z" style="opacity: 0.7; stroke-width: 1px; fill: rgb(100, 149, 237); fill-opacity: 1; stroke: rgb(255, 255, 255); stroke-opacity: 1;"/><path class="point" transform="translate(361.5,27.49)" d="M3.13,0A3.13,3.13 0 1,1 0,-3.13A3.13,3.13 0 0,1 3.13,0Z" style="opacity: 0.7; stroke-width: 1px; fill: rgb(100, 149, 237); fill-opacity: 1; stroke: rgb(255, 255, 255); stroke-opacity: 1;"/><path class="point" transform="translate(177.59,19)" d="M0,0A0,0 0 1,1 0,-0A0,0 0 0,1 0,0Z" style="opacity: 0.7; stroke-width: 1px; fill: rgb(100, 149, 237); fill-opacity: 1; stroke: rgb(255, 255, 255); stroke-opacity: 1;"/><path class="point" transform="translate(91.59,242.76)" d="M3.13,0A3.13,3.13 0 1,1 0,-3.13A3.13,3.13 0 0,1 3.13,0Z" style="opacity: 0.7; stroke-width: 1px; fill: rgb(100, 149, 237); fill-opacity: 1; stroke: rgb(255, 255, 255); stroke-opacity: 1;"/><path class="point" transform="translate(114.08,232.45)" d="M3.13,0A3.13,3.13 0 1,1 0,-3.13A3.13,3.13 0 0,1 3.13,0Z" style="opacity: 0.7; stroke-width: 1px; fill: rgb(100, 149, 237); fill-opacity: 1; stroke: rgb(255, 255, 255); stroke-opacity: 1;"/><path class="point" transform="translate(30.91,79.36)" d="M3.13,0A3.13,3.13 0 1,1 0,-3.13A3.13,3.13 0 0,1 3.13,0Z" style="opacity: 0.7; stroke-width: 1px; fill: rgb(100, 149, 237); fill-opacity: 1; stroke: rgb(255, 255, 255); stroke-opacity: 1;"/><path class="point" transform="translate(47.48,69.54)" d="M3.13,0A3.13,3.13 0 1,1 0,-3.13A3.13,3.13 0 0,1 3.13,0Z" style="opacity: 0.7; stroke-width: 1px; fill: rgb(100, 149, 237); fill-opacity: 1; stroke: rgb(255, 255, 255); stroke-opacity: 1;"/><path class="point" transform="translate(293.49,173.06)" d="M6.25,0A6.25,6.25 0 1,1 0,-6.25A6.25,6.25 0 0,1 6.25,0Z" style="opacity: 0.7; stroke-width: 1px; fill: rgb(100, 149, 237); fill-opacity: 1; stroke: rgb(255, 255, 255); stroke-opacity: 1;"/><path class="point" transform="translate(262.86,169.87)" d="M6.25,0A6.25,6.25 0 1,1 0,-6.25A6.25,6.25 0 0,1 6.25,0Z" style="opacity: 0.7; stroke-width: 1px; fill: rgb(100, 149, 237); fill-opacity: 1; stroke: rgb(255, 255, 255); stroke-opacity: 1;"/><path class="point" transform="translate(234.99,166.8)" d="M3.13,0A3.13,3.13 0 1,1 0,-3.13A3.13,3.13 0 0,1 3.13,0Z" style="opacity: 0.7; stroke-width: 1px; fill: rgb(100, 149, 237); fill-opacity: 1; stroke: rgb(255, 255, 255); stroke-opacity: 1;"/><path class="point" transform="translate(510,222.49)" d="M0,0A0,0 0 1,1 0,-0A0,0 0 0,1 0,0Z" style="opacity: 0.7; stroke-width: 1px; fill: rgb(100, 149, 237); fill-opacity: 1; stroke: rgb(255, 255, 255); stroke-opacity: 1;"/><path class="point" transform="translate(321.66,176.18)" d="M3.13,0A3.13,3.13 0 1,1 0,-3.13A3.13,3.13 0 0,1 3.13,0Z" style="opacity: 0.7; stroke-width: 1px; fill: rgb(100, 149, 237); fill-opacity: 1; stroke: rgb(255, 255, 255); stroke-opacity: 1;"/></g><g class="text"><g class="textpoint" transform="translate(0,-11.3125)"><text x="299.97" y="281.07" text-anchor="middle" style="font-family: 'Open Sans', verdana, arial, sans-serif; font-size: 10px; fill: rgb(42, 63, 95); fill-opacity: 1; white-space: pre;"><tspan style="font-weight:bold">mathemat</tspan></text></g><g class="textpoint" transform="translate(0,-9.75)"><text x="306.46" y="297.75" text-anchor="middle" style="font-family: 'Open Sans', verdana, arial, sans-serif; font-size: 10px; fill: rgb(42, 63, 95); fill-opacity: 1; white-space: pre;"><tspan style="font-weight:bold">model</tspan></text></g><g class="textpoint" transform="translate(0,-9.75)"><text x="389.82" y="47.09" text-anchor="middle" style="font-family: 'Open Sans', verdana, arial, sans-serif; font-size: 10px; fill: rgb(42, 63, 95); fill-opacity: 1; white-space: pre;"><tspan style="font-weight:bold">ion</tspan></text></g><g class="textpoint" transform="translate(0,-16)"><text x="361.89" y="45.61" text-anchor="middle" style="font-family: 'Open Sans', verdana, arial, sans-serif; font-size: 10px; fill: rgb(42, 63, 95); fill-opacity: 1; white-space: pre;"><tspan style="font-weight:bold">exchang</tspan></text></g><g class="textpoint" transform="translate(0,-7.40625)"><text x="361.5" y="27.49" text-anchor="middle" style="font-family: 'Open Sans', verdana, arial, sans-serif; font-size: 10px; fill: rgb(42, 63, 95); fill-opacity: 1; white-space: pre;"><tspan style="font-weight:bold">compress</tspan></text></g><g class="textpoint" transform="translate(0,-2.5)"><text x="177.59" y="19" text-anchor="middle" style="font-family: 'Open Sans', verdana, arial, sans-serif; font-size: 10px; fill: rgb(42, 63, 95); fill-opacity: 1; white-space: pre;"><tspan style="font-weight:bold">process</tspan></text></g><g class="textpoint" transform="translate(0,-7.40625)"><text x="91.59" y="242.76" text-anchor="middle" style="font-family: 'Open Sans', verdana, arial, sans-serif; font-size: 10px; fill: rgb(42, 63, 95); fill-opacity: 1; white-space: pre;"><tspan style="font-weight:bold">invers</tspan></text></g><g class="textpoint" transform="translate(0,-7.40625)"><text x="114.08" y="232.45" text-anchor="middle" style="font-family: 'Open Sans', verdana, arial, sans-serif; font-size: 10px; fill: rgb(42, 63, 95); fill-opacity: 1; white-space: pre;"><tspan style="font-weight:bold">problem</tspan></text></g><g class="textpoint" transform="translate(0,-7.40625)"><text x="30.91" y="79.36" text-anchor="middle" style="font-family: 'Open Sans', verdana, arial, sans-serif; font-size: 10px; fill: rgb(42, 63, 95); fill-opacity: 1; white-space: pre;"><tspan style="font-weight:bold">uniqu</tspan></text></g><g class="textpoint" transform="translate(0,-7.40625)"><text x="47.48" y="69.54" text-anchor="middle" style="font-family: 'Open Sans', verdana, arial, sans-serif; font-size: 10px; fill: rgb(42, 63, 95); fill-opacity: 1; white-space: pre;"><tspan style="font-weight:bold">solvabl</tspan></text></g><g class="textpoint" transform="translate(0,-11.3125)"><text x="293.49" y="173.06" text-anchor="middle" style="font-family: 'Open Sans', verdana, arial, sans-serif; font-size: 10px; fill: rgb(42, 63, 95); fill-opacity: 1; white-space: pre;"><tspan style="font-weight:bold">numer</tspan></text></g><g class="textpoint" transform="translate(0,-11.3125)"><text x="262.86" y="169.87" text-anchor="middle" style="font-family: 'Open Sans', verdana, arial, sans-serif; font-size: 10px; fill: rgb(42, 63, 95); fill-opacity: 1; white-space: pre;"><tspan style="font-weight:bold">solut</tspan></text></g><g class="textpoint" transform="translate(0,-7.40625)"><text x="234.99" y="166.8" text-anchor="middle" style="font-family: 'Open Sans', verdana, arial, sans-serif; font-size: 10px; fill: rgb(42, 63, 95); fill-opacity: 1; white-space: pre;"><tspan style="font-weight:bold">method</tspan></text></g><g class="textpoint" transform="translate(0,-2.5)"><text x="510" y="222.49" text-anchor="middle" style="font-family: 'Open Sans', verdana, arial, sans-serif; font-size: 10px; fill: rgb(42, 63, 95); fill-opacity: 1; white-space: pre;"><tspan style="font-weight:bold">effici</tspan></text></g><g class="textpoint" transform="translate(0,-7.40625)"><text x="321.66" y="176.18" text-anchor="middle" style="font-family: 'Open Sans', verdana, arial, sans-serif; font-size: 10px; fill: rgb(42, 63, 95); fill-opacity: 1; white-space: pre;"><tspan style="font-weight:bold">experi</tspan></text></g></g></g></g></g><g class="overplot"/><path class="xlines-above crisp" d="M0,0" style="fill: none;"/><path class="ylines-above crisp" d="M0,0" style="fill: none;"/><g class="overlines-above"/><g class="xaxislayer-above"/><g class="yaxislayer-above"/><g class="overaxes-above"/></g></g><g class="polarlayer"/><g class="ternarylayer"/><g class="geolayer"/><g class="funnelarealayer"/><g class="pielayer"/><g class="iciclelayer"/><g class="treemaplayer"/><g class="sunburstlayer"/><g class="glimages"/><defs id="topdefs-ec6ad9"><g class="clips"/></defs><g class="layer-above"><g class="imagelayer"/><g class="shapelayer"/></g><g class="infolayer"><g class="g-gtitle"><text class="gtitle" x="350" y="50" text-anchor="middle" dy="0em" style="font-family: 'Open Sans', verdana, arial, sans-serif; font-size: 17px; fill: rgb(42, 63, 95); opacity: 1; font-weight: normal; white-space: pre;"><tspan style="font-weight:bold">TextRank - EN</tspan></text></g><g class="g-xtitle"/><g class="g-ytitle"/></g></svg>