<svg class="main-svg" xmlns="http://www.w3.org/2000/svg" xmlns:xlink="http://www.w3.org/1999/xlink" width="700" height="500" style="" viewBox="0 0 700 500"><rect x="0" y="0" width="700" height="500" style="fill: rgb(0, 0, 0); fill-opacity: 0;"/><defs id="defs-f96824"><g class="clips"><clipPath id="clipf96824xyplot" class="plotclip"><rect width="540" height="320"/></clipPath><clipPath class="axesclip" id="clipf96824x"><rect x="80" y="0" width="540" height="500"/></clipPath><clipPath class="axesclip" id="clipf96824y"><rect x="0" y="100" width="700" height="320"/></clipPath><clipPath class="axesclip" id="clipf96824xy"><rect x="80" y="100" width="540" height="320"/></clipPath></g><g class="gradients"/><g class="patterns"/></defs><g class="bglayer"><rect class="bg" x="80" y="100" width="540" height="320" style="fill: rgb(0, 0, 0); fill-opacity: 0; stroke-width: 0;"/></g><g class="layer-below"><g class="imagelayer"/><g class="shapelayer"/></g><g class="cartesianlayer"><g class="subplot xy"><g class="layer-subplot"><g class="shapelayer"/><g class="imagelayer"/></g><g class="gridlayer"><g class="x"><path class="xgrid crisp" transform="translate(210.05,0)" d="M0,100v320" style="stroke: rgb(255, 255, 255); stroke-opacity: 1; stroke-width: 1px;"/><path class="xgrid crisp" transform="translate(481.24,0)" d="M0,100v320" style="stroke: rgb(255, 255, 255); stroke-opacity: 1; stroke-width: 1px;"/><path class="xgrid crisp" transform="translate(616.83,0)" d="M0,100v320" style="stroke: rgb(255, 255, 255); stroke-opacity: 1; stroke-width: 1px;"/></g><g class="y"><path class="ygrid crisp" transform="translate(0,401)" d="M80,0h540" style="stroke: rgb(255, 255, 255); stroke-opacity: 1; stroke-width: 1px;"/><path class="ygrid crisp" transform="translate(0,329.48)" d="M80,0h540" style="stroke: rgb(255, 255, 255); stroke-opacity: 1; stroke-width: 1px;"/><path class="ygrid crisp" transform="translate(0,186.44)" d="M80,0h540" style="stroke: rgb(255, 255, 255); stroke-opacity: 1; stroke-width: 1px;"/><path class="ygrid crisp" transform="translate(0,114.92)" d="M80,0h540" style="stroke: rgb(255, 255, 255); stroke-opacity: 1; stroke-width: 1px;"/></g></g><g class="zerolinelayer"><path class="xzl zl crisp" transform="translate(345.64,0)" d="M0,100v320" style="stroke: rgb(255, 255, 255); stroke-opacity: 1; stroke-width: 2px;"/><path class="yzl zl crisp" transform="translate(0,257.96000000000004)" d="M80,0h540" style="stroke: rgb(255, 255, 255); stroke-opacity: 1; stroke-width: 2px;"/></g><path class="xlines-below"/><path class="ylines-below"/><g class="overlines-below"/><g class="xaxislayer-below"/><g class="yaxislayer-below"/><g class="overaxes-below"/><g class="plot" transform="translate(80,100)" clip-path="url(#clipf96824xyplot)"><g class="scatterlayer mlayer"><g class="trace scatter trace89b97f" style="stroke-miterlimit: 2; opacity: 1;"><g class="fills"/><g class="errorbars"/><g class="lines"><path class="js-line" d="M358.54,55.87L345.36,49.96" style="vector-effect: non-scaling-stroke; fill: none; stroke: rgb(100, 149, 237); stroke-opacity: 1; stroke-width: 2.05156px; opacity: 1;"/></g><g class="points"/><g class="text"/></g><g class="trace scatter trace261287" style="stroke-miterlimit: 2; opacity: 1;"><g class="fills"/><g class="errorbars"/><g class="lines"><path class="js-line" d="M300.8,162.47L277.53,159.48" style="vector-effect: non-scaling-stroke; fill: none; stroke: rgb(100, 149, 237); stroke-opacity: 1; stroke-width: 2.05156px; opacity: 1;"/></g><g class="points"/><g class="text"/></g><g class="trace scatter tracead1766" style="stroke-miterlimit: 2; opacity: 1;"><g class="fills"/><g class="errorbars"/><g class="lines"><path class="js-line" d="M277.53,159.48L287.41,147.86" style="vector-effect: non-scaling-stroke; fill: none; stroke: rgb(100, 149, 237); stroke-opacity: 1; stroke-width: 2.05156px; opacity: 1;"/></g><g class="points"/><g class="text"/></g><g class="trace scatter trace6dae90" style="stroke-miterlimit: 2; opacity: 1;"><g class="fills"/><g class="errorbars"/><g class="lines"><path class="js-line" d="M277.53,159.48L250.16,167.59" style="vector-effect: non-scaling-stroke; fill: none; stroke: rgb(100, 149, 237); stroke-opacity: 1; stroke-width: 2.05156px; opacity: 1;"/></g><g class="points"/><g class="text"/></g><g class="trace scatter trace66153b" style="stroke-miterlimit: 2; opacity: 1;"><g class="fills"/><g class="errorbars"/><g class="lines"><path class="js-line" d="M197.38,186.69L223.17,176.63" style="vector-effect: non-scaling-stroke; fill: none; stroke: rgb(100, 149, 237); stroke-opacity: 1; stroke-width: 2.05156px; opacity: 1;"/></g><g class="points"/><g class="text"/></g><g class="trace scatter trace146b89" style="stroke-miterlimit: 2; opacity: 1;"><g class="fills"/><g class="errorbars"/><g class="lines"><path class="js-line" d="M197.38,186.69L173.15,188.44" style="vector-effect: non-scaling-stroke; fill: none; stroke: rgb(100, 149, 237); stroke-opacity: 1; stroke-width: 2.05156px; opacity: 1;"/></g><g class="points"/><g class="text"/></g><g class="trace scatter trace259df9" style="stroke-miterlimit: 2; opacity: 1;"><g class="fills"/><g class="errorbars"/><g class="lines"><path class="js-line" d="M197.38,186.69L192.05,199.46" style="vector-effect: non-scaling-stroke; fill: none; stroke: rgb(100, 149, 237); stroke-opacity: 1; stroke-width: 2.05156px; opacity: 1;"/></g><g class="points"/><g class="text"/></g><g class="trace scatter trace2fa2a6" style="stroke-miterlimit: 2; opacity: 1;"><g class="fills"/><g class="errorbars"/><g class="lines"><path class="js-line" d="M223.17,176.63L250.16,167.59" style="vector-effect: non-scaling-stroke; fill: none; stroke: rgb(100, 149, 237); stroke-opacity: 1; stroke-width: 2.05156px; opacity: 1;"/></g><g class="points"/><g class="text"/></g><g class="trace scatter trace9295d1" style="stroke-miterlimit: 2; opacity: 1;"><g class="fills"/><g class="errorbars"/><g class="lines"><path class="js-line" d="M509.88,160.75L494.46,164.98" style="vector-effect: non-scaling-stroke; fill: none; stroke: rgb(100, 149, 237); stroke-opacity: 1; stroke-width: 2.05156px; opacity: 1;"/></g><g class="points"/><g class="text"/></g><g class="trace scatter trace7a8d16" style="stroke-miterlimit: 2; opacity: 1;"><g class="fills"/><g class="errorbars"/><g class="lines"><path class="js-line" d="M74.83,147.79L58.76,141.46" style="vector-effect: non-scaling-stroke; fill: none; stroke: rgb(100, 149, 237); stroke-opacity: 1; stroke-width: 2.05156px; opacity: 1;"/></g><g class="points"/><g class="text"/></g><g class="trace scatter trace6deb76" style="stroke-miterlimit: 2; opacity: 1;"><g class="fills"/><g class="errorbars"/><g class="lines"><path class="js-line" d="M74.83,147.79L92.96,153.41" style="vector-effect: non-scaling-stroke; fill: none; stroke: rgb(100, 149, 237); stroke-opacity: 1; stroke-width: 2.05156px; opacity: 1;"/></g><g class="points"/><g class="text"/></g><g class="trace scatter trace9e4973" style="stroke-miterlimit: 2; opacity: 1;"><g class="fills"/><g class="errorbars"/><g class="lines"><path class="js-line" d="M466.28,71.47L455.11,64.4" style="vector-effect: non-scaling-stroke; fill: none; stroke: rgb(100, 149, 237); stroke-opacity: 1; stroke-width: 2.05156px; opacity: 1;"/></g><g class="points"/><g class="text"/></g><g class="trace scatter trace6183d1" style="stroke-miterlimit: 2; opacity: 1;"><g class="fills"/><g class="errorbars"/><g class="lines"/><g class="points"><path class="point" transform="translate(484.89,214.53)" d="M0,0A0,0 0 1,1 0,-0A0,0 0 0,1 0,0Z" style="opacity: 0.7; stroke-width: 1px; fill: rgb(100, 149, 237); fill-opacity: 1; stroke: rgb(255, 255, 255); stroke-opacity: 1;"/><path class="point" transform="translate(314.61,301)" d="M0,0A0,0 0 1,1 0,-0A0,0 0 0,1 0,0Z" style="opacity: 0.7; stroke-width: 1px; fill: rgb(100, 149, 237); fill-opacity: 1; stroke: rgb(255, 255, 255); stroke-opacity: 1;"/><path class="point" transform="translate(358.54,55.87)" d="M4.17,0A4.17,4.17 0 1,1 0,-4.17A4.17,4.17 0 0,1 4.17,0Z" style="opacity: 0.7; stroke-width: 1px; fill: rgb(100, 149, 237); fill-opacity: 1; stroke: rgb(255, 255, 255); stroke-opacity: 1;"/><path class="point" transform="translate(345.36,49.96)" d="M4.17,0A4.17,4.17 0 1,1 0,-4.17A4.17,4.17 0 0,1 4.17,0Z" style="opacity: 0.7; stroke-width: 1px; fill: rgb(100, 149, 237); fill-opacity: 1; stroke: rgb(255, 255, 255); stroke-opacity: 1;"/><path class="point" transform="translate(300.8,162.47)" d="M4.17,0A4.17,4.17 0 1,1 0,-4.17A4.17,4.17 0 0,1 4.17,0Z" style="opacity: 0.7; stroke-width: 1px; fill: rgb(100, 149, 237); fill-opacity: 1; stroke: rgb(255, 255, 255); stroke-opacity: 1;"/><path class="point" transform="translate(277.53,159.48)" d="M12.5,0A12.5,12.5 0 1,1 0,-12.5A12.5,12.5 0 0,1 12.5,0Z" style="opacity: 0.7; stroke-width: 1px; fill: rgb(100, 149, 237); fill-opacity: 1; stroke: rgb(255, 255, 255); stroke-opacity: 1;"/><path class="point" transform="translate(287.41,147.86)" d="M2.5,0A2.5,2.5 0 1,1 0,-2.5A2.5,2.5 0 0,1 2.5,0Z" style="opacity: 0.7; stroke-width: 1px; fill: rgb(100, 149, 237); fill-opacity: 1; stroke: rgb(255, 255, 255); stroke-opacity: 1;"/><path class="point" transform="translate(197.38,186.69)" d="M7.5,0A7.5,7.5 0 1,1 0,-7.5A7.5,7.5 0 0,1 7.5,0Z" style="opacity: 0.7; stroke-width: 1px; fill: rgb(100, 149, 237); fill-opacity: 1; stroke: rgb(255, 255, 255); stroke-opacity: 1;"/><path class="point" transform="translate(223.17,176.63)" d="M5,0A5,5 0 1,1 0,-5A5,5 0 0,1 5,0Z" style="opacity: 0.7; stroke-width: 1px; fill: rgb(100, 149, 237); fill-opacity: 1; stroke: rgb(255, 255, 255); stroke-opacity: 1;"/><path class="point" transform="translate(250.16,167.59)" d="M5,0A5,5 0 1,1 0,-5A5,5 0 0,1 5,0Z" style="opacity: 0.7; stroke-width: 1px; fill: rgb(100, 149, 237); fill-opacity: 1; stroke: rgb(255, 255, 255); stroke-opacity: 1;"/><path class="point" transform="translate(509.88,160.75)" d="M2.5,0A2.5,2.5 0 1,1 0,-2.5A2.5,2.5 0 0,1 2.5,0Z" style="opacity: 0.7; stroke-width: 1px; fill: rgb(100, 149, 237); fill-opacity: 1; stroke: rgb(255, 255, 255); stroke-opacity: 1;"/><path class="point" transform="translate(494.46,164.98)" d="M2.5,0A2.5,2.5 0 1,1 0,-2.5A2.5,2.5 0 0,1 2.5,0Z" style="opacity: 0.7; stroke-width: 1px; fill: rgb(100, 149, 237); fill-opacity: 1; stroke: rgb(255, 255, 255); stroke-opacity: 1;"/><path class="point" transform="translate(164.55,28.63)" d="M0,0A0,0 0 1,1 0,-0A0,0 0 0,1 0,0Z" style="opacity: 0.7; stroke-width: 1px; fill: rgb(100, 149, 237); fill-opacity: 1; stroke: rgb(255, 255, 255); stroke-opacity: 1;"/><path class="point" transform="translate(30,245.3)" d="M0,0A0,0 0 1,1 0,-0A0,0 0 0,1 0,0Z" style="opacity: 0.7; stroke-width: 1px; fill: rgb(100, 149, 237); fill-opacity: 1; stroke: rgb(255, 255, 255); stroke-opacity: 1;"/><path class="point" transform="translate(261.84,283.73)" d="M0,0A0,0 0 1,1 0,-0A0,0 0 0,1 0,0Z" style="opacity: 0.7; stroke-width: 1px; fill: rgb(100, 149, 237); fill-opacity: 1; stroke: rgb(255, 255, 255); stroke-opacity: 1;"/><path class="point" transform="translate(125.77,285.29)" d="M0,0A0,0 0 1,1 0,-0A0,0 0 0,1 0,0Z" style="opacity: 0.7; stroke-width: 1px; fill: rgb(100, 149, 237); fill-opacity: 1; stroke: rgb(255, 255, 255); stroke-opacity: 1;"/><path class="point" transform="translate(407.07,265.28)" d="M0,0A0,0 0 1,1 0,-0A0,0 0 0,1 0,0Z" style="opacity: 0.7; stroke-width: 1px; fill: rgb(100, 149, 237); fill-opacity: 1; stroke: rgb(255, 255, 255); stroke-opacity: 1;"/><path class="point" transform="translate(265.52,19)" d="M0,0A0,0 0 1,1 0,-0A0,0 0 0,1 0,0Z" style="opacity: 0.7; stroke-width: 1px; fill: rgb(100, 149, 237); fill-opacity: 1; stroke: rgb(255, 255, 255); stroke-opacity: 1;"/><path class="point" transform="translate(173.15,188.44)" d="M2.5,0A2.5,2.5 0 1,1 0,-2.5A2.5,2.5 0 0,1 2.5,0Z" style="opacity: 0.7; stroke-width: 1px; fill: rgb(100, 149, 237); fill-opacity: 1; stroke: rgb(255, 255, 255); stroke-opacity: 1;"/><path class="point" transform="translate(192.05,199.46)" d="M2.5,0A2.5,2.5 0 1,1 0,-2.5A2.5,2.5 0 0,1 2.5,0Z" style="opacity: 0.7; stroke-width: 1px; fill: rgb(100, 149, 237); fill-opacity: 1; stroke: rgb(255, 255, 255); stroke-opacity: 1;"/><path class="point" transform="translate(74.83,147.79)" d="M5,0A5,5 0 1,1 0,-5A5,5 0 0,1 5,0Z" style="opacity: 0.7; stroke-width: 1px; fill: rgb(100, 149, 237); fill-opacity: 1; stroke: rgb(255, 255, 255); stroke-opacity: 1;"/><path class="point" transform="translate(466.28,71.47)" d="M2.5,0A2.5,2.5 0 1,1 0,-2.5A2.5,2.5 0 0,1 2.5,0Z" style="opacity: 0.7; stroke-width: 1px; fill: rgb(100, 149, 237); fill-opacity: 1; stroke: rgb(255, 255, 255); stroke-opacity: 1;"/><path class="point" transform="translate(455.11,64.4)" d="M2.5,0A2.5,2.5 0 1,1 0,-2.5A2.5,2.5 0 0,1 2.5,0Z" style="opacity: 0.7; stroke-width: 1px; fill: rgb(100, 149, 237); fill-opacity: 1; stroke: rgb(255, 255, 255); stroke-opacity: 1;"/><path class="point" transform="translate(58.76,141.46)" d="M2.5,0A2.5,2.5 0 1,1 0,-2.5A2.5,2.5 0 0,1 2.5,0Z" style="opacity: 0.7; stroke-width: 1px; fill: rgb(100, 149, 237); fill-opacity: 1; stroke: rgb(255, 255, 255); stroke-opacity: 1;"/><path class="point" transform="translate(92.96,153.41)" d="M2.5,0A2.5,2.5 0 1,1 0,-2.5A2.5,2.5 0 0,1 2.5,0Z" style="opacity: 0.7; stroke-width: 1px; fill: rgb(100, 149, 237); fill-opacity: 1; stroke: rgb(255, 255, 255); stroke-opacity: 1;"/><path class="point" transform="translate(94.64,65.51)" d="M0,0A0,0 0 1,1 0,-0A0,0 0 0,1 0,0Z" style="opacity: 0.7; stroke-width: 1px; fill: rgb(100, 149, 237); fill-opacity: 1; stroke: rgb(255, 255, 255); stroke-opacity: 1;"/></g><g class="text"><g class="textpoint" transform="translate(0,-2.5)"><text x="484.89" y="214.53" text-anchor="middle" style="font-family: 'Open Sans', verdana, arial, sans-serif; font-size: 10px; fill: rgb(42, 63, 95); fill-opacity: 1; white-space: pre;"><tspan style="font-weight:bold">블룸버그</tspan></text></g><g class="textpoint" transform="translate(0,-2.5)"><text x="314.61" y="301" text-anchor="middle" style="font-family: 'Open Sans', verdana, arial, sans-serif; font-size: 10px; fill: rgb(42, 63, 95); fill-opacity: 1; white-space: pre;"><tspan style="font-weight:bold">블랙록</tspan></text></g><g class="textpoint" transform="translate(0,-8.708333333333332)"><text x="358.54" y="55.87" text-anchor="middle" style="font-family: 'Open Sans', verdana, arial, sans-serif; font-size: 10px; fill: rgb(42, 63, 95); fill-opacity: 1; white-space: pre;"><tspan style="font-weight:bold">스테이트</tspan></text></g><g class="textpoint" transform="translate(0,-8.708333333333332)"><text x="345.36" y="49.96" text-anchor="middle" style="font-family: 'Open Sans', verdana, arial, sans-serif; font-size: 10px; fill: rgb(42, 63, 95); fill-opacity: 1; white-space: pre;"><tspan style="font-weight:bold">스트리트</tspan></text></g><g class="textpoint" transform="translate(0,-8.708333333333332)"><text x="300.8" y="162.47" text-anchor="middle" style="font-family: 'Open Sans', verdana, arial, sans-serif; font-size: 10px; fill: rgb(42, 63, 95); fill-opacity: 1; white-space: pre;"><tspan style="font-weight:bold">JP</tspan></text></g><g class="textpoint" transform="translate(0,-19.125)"><text x="277.53" y="159.48" text-anchor="middle" style="font-family: 'Open Sans', verdana, arial, sans-serif; font-size: 10px; fill: rgb(42, 63, 95); fill-opacity: 1; white-space: pre;"><tspan style="font-weight:bold">자산운용</tspan></text></g><g class="textpoint" transform="translate(0,-6.625)"><text x="287.41" y="147.86" text-anchor="middle" style="font-family: 'Open Sans', verdana, arial, sans-serif; font-size: 10px; fill: rgb(42, 63, 95); fill-opacity: 1; white-space: pre;"><tspan style="font-weight:bold">UBS</tspan></text></g><g class="textpoint" transform="translate(0,-12.875)"><text x="197.38" y="186.69" text-anchor="middle" style="font-family: 'Open Sans', verdana, arial, sans-serif; font-size: 10px; fill: rgb(42, 63, 95); fill-opacity: 1; white-space: pre;"><tspan style="font-weight:bold">세계</tspan></text></g><g class="textpoint" transform="translate(0,-9.75)"><text x="223.17" y="176.63" text-anchor="middle" style="font-family: 'Open Sans', verdana, arial, sans-serif; font-size: 10px; fill: rgb(42, 63, 95); fill-opacity: 1; white-space: pre;"><tspan style="font-weight:bold">최대</tspan></text></g><g class="textpoint" transform="translate(0,-9.75)"><text x="250.16" y="167.59" text-anchor="middle" style="font-family: 'Open Sans', verdana, arial, sans-serif; font-size: 10px; fill: rgb(42, 63, 95); fill-opacity: 1; white-space: pre;"><tspan style="font-weight:bold">규모</tspan></text></g><g class="textpoint" transform="translate(0,-6.625)"><text x="509.88" y="160.75" text-anchor="middle" style="font-family: 'Open Sans', verdana, arial, sans-serif; font-size: 10px; fill: rgb(42, 63, 95); fill-opacity: 1; white-space: pre;"><tspan style="font-weight:bold">올해</tspan></text></g><g class="textpoint" transform="translate(0,-6.625)"><text x="494.46" y="164.98" text-anchor="middle" style="font-family: 'Open Sans', verdana, arial, sans-serif; font-size: 10px; fill: rgb(42, 63, 95); fill-opacity: 1; white-space: pre;"><tspan style="font-weight:bold">하반기</tspan></text></g><g class="textpoint" transform="translate(0,-2.5)"><text x="164.55" y="28.63" text-anchor="middle" style="font-family: 'Open Sans', verdana, arial, sans-serif; font-size: 10px; fill: rgb(42, 63, 95); fill-opacity: 1; white-space: pre;"><tspan style="font-weight:bold">주식</tspan></text></g><g class="textpoint" transform="translate(0,-2.5)"><text x="30" y="245.3" text-anchor="middle" style="font-family: 'Open Sans', verdana, arial, sans-serif; font-size: 10px; fill: rgb(42, 63, 95); fill-opacity: 1; white-space: pre;"><tspan style="font-weight:bold">계속</tspan></text></g><g class="textpoint" transform="translate(0,-2.5)"><text x="261.84" y="283.73" text-anchor="middle" style="font-family: 'Open Sans', verdana, arial, sans-serif; font-size: 10px; fill: rgb(42, 63, 95); fill-opacity: 1; white-space: pre;"><tspan style="font-weight:bold">전망</tspan></text></g><g class="textpoint" transform="translate(0,-2.5)"><text x="125.77" y="285.29" text-anchor="middle" style="font-family: 'Open Sans', verdana, arial, sans-serif; font-size: 10px; fill: rgb(42, 63, 95); fill-opacity: 1; white-space: pre;"><tspan style="font-weight:bold">제시</tspan></text></g><g class="textpoint" transform="translate(0,-2.5)"><text x="407.07" y="265.28" text-anchor="middle" style="font-family: 'Open Sans', verdana, arial, sans-serif; font-size: 10px; fill: rgb(42, 63, 95); fill-opacity: 1; white-space: pre;"><tspan style="font-weight:bold">있</tspan></text></g><g class="textpoint" transform="translate(0,-2.5)"><text x="265.52" y="19" text-anchor="middle" style="font-family: 'Open Sans', verdana, arial, sans-serif; font-size: 10px; fill: rgb(42, 63, 95); fill-opacity: 1; white-space: pre;"><tspan style="font-weight:bold">MSCI</tspan></text></g><g class="textpoint" transform="translate(0,-6.625)"><text x="173.15" y="188.44" text-anchor="middle" style="font-family: 'Open Sans', verdana, arial, sans-serif; font-size: 10px; fill: rgb(42, 63, 95); fill-opacity: 1; white-space: pre;"><tspan style="font-weight:bold">국가</tspan></text></g><g class="textpoint" transform="translate(0,-6.625)"><text x="192.05" y="199.46" text-anchor="middle" style="font-family: 'Open Sans', verdana, arial, sans-serif; font-size: 10px; fill: rgb(42, 63, 95); fill-opacity: 1; white-space: pre;"><tspan style="font-weight:bold">지수</tspan></text></g><g class="textpoint" transform="translate(0,-9.75)"><text x="74.83" y="147.79" text-anchor="middle" style="font-family: 'Open Sans', verdana, arial, sans-serif; font-size: 10px; fill: rgb(42, 63, 95); fill-opacity: 1; white-space: pre;"><tspan style="font-weight:bold">상승</tspan></text></g><g class="textpoint" transform="translate(0,-6.625)"><text x="466.28" y="71.47" text-anchor="middle" style="font-family: 'Open Sans', verdana, arial, sans-serif; font-size: 10px; fill: rgb(42, 63, 95); fill-opacity: 1; white-space: pre;"><tspan style="font-weight:bold">역대</tspan></text></g><g class="textpoint" transform="translate(0,-6.625)"><text x="455.11" y="64.4" text-anchor="middle" style="font-family: 'Open Sans', verdana, arial, sans-serif; font-size: 10px; fill: rgb(42, 63, 95); fill-opacity: 1; white-space: pre;"><tspan style="font-weight:bold">고점</tspan></text></g><g class="textpoint" transform="translate(0,-6.625)"><text x="58.76" y="141.46" text-anchor="middle" style="font-family: 'Open Sans', verdana, arial, sans-serif; font-size: 10px; fill: rgb(42, 63, 95); fill-opacity: 1; white-space: pre;"><tspan style="font-weight:bold">추가</tspan></text></g><g class="textpoint" transform="translate(0,-6.625)"><text x="92.96" y="153.41" text-anchor="middle" style="font-family: 'Open Sans', verdana, arial, sans-serif; font-size: 10px; fill: rgb(42, 63, 95); fill-opacity: 1; white-space: pre;"><tspan style="font-weight:bold">가능</tspan></text></g><g class="textpoint" transform="translate(0,-2.5)"><text x="94.64" y="65.51" text-anchor="middle" style="font-family: 'Open Sans', verdana, arial, sans-serif; font-size: 10px; fill: rgb(42, 63, 95); fill-opacity: 1; white-space: pre;"><tspan style="font-weight:bold">높</tspan></text></g></g></g></g></g><g class="overplot"/><path class="xlines-above crisp" d="M0,0" style="fill: none;"/><path class="ylines-above crisp" d="M0,0" style="fill: none;"/><g class="overlines-above"/><g class="xaxislayer-above"/><g class="yaxislayer-above"/><g class="overaxes-above"/></g></g><g class="polarlayer"/><g class="ternarylayer"/><g class="geolayer"/><g class="funnelarealayer"/><g class="pielayer"/><g class="iciclelayer"/><g class="treemaplayer"/><g class="sunburstlayer"/><g class="glimages"/><defs id="topdefs-f96824"><g class="clips"/></defs><g class="layer-above"><g class="imagelayer"/><g class="shapelayer"/></g><g class="infolayer"><g class="g-gtitle"><text class="gtitle" x="350" y="50" text-anchor="middle" dy="0em" style="font-family: 'Open Sans', verdana, arial, sans-serif; font-size: 17px; fill: rgb(42, 63, 95); opacity: 1; font-weight: normal; white-space: pre;"><tspan style="font-weight:bold">TextRank - KO</tspan></text></g><g class="g-xtitle"/><g class="g-ytitle"/></g></svg>